<svg xmlns="http://www.w3.org/2000/svg" viewBox="0 0 1100 1500" width="1100" height="1500">
<style>text{font-family:"Microsoft YaHei","PingFang SC","SimHei",Arial,sans-serif}.t{font-size:25px;font-weight:700}.h{font-size:17px;font-weight:700}.n{font-size:15px;font-weight:600}.b{font-size:12px}.s{font-size:11px;fill:#4b5563}.l{font-size:11px}</style>
<defs><marker id="up" markerWidth="13" markerHeight="12" refX="6.5" refY="1" orient="auto"><path d="M1,11 L6.5,1 L12,11 Z" fill="#fff" stroke="#111" stroke-width="1.2"/></marker><marker id="thin" markerWidth="8" markerHeight="6" refX="7" refY="3" orient="auto"><polygon points="0,0 8,3 0,6" fill="#111"/></marker></defs>
<rect width="1100" height="1500" fill="#fff"/>
<text x="550" y="38" text-anchor="middle" class="t">广告流批一体湖仓系统总体架构</text>
<rect x="40" y="65" width="1020" height="190" fill="#fff" stroke="#111" stroke-width="1.3" stroke-dasharray="8,5"/>
<text x="54" y="93" class="h">数据应用平台</text>
<rect x="145" y="105" width="810" height="55" rx="7" fill="#fff" stroke="#111" stroke-width="1.5"/>
<text x="550.0" y="130" text-anchor="middle" class="n">Apache Superset</text>
<text x="550.0" y="152" text-anchor="middle" class="b">广告经营、归因、反作弊与质量分析看板</text>
<rect x="370" y="178" width="360" height="59" fill="#f3f4f6"/>
<ellipse cx="550.0" cy="178" rx="180.0" ry="13" fill="#fff" stroke="#111" stroke-width="1.5"/>
<line x1="370" y1="178" x2="370" y2="237" stroke="#111" stroke-width="1.5"/><line x1="730" y1="178" x2="730" y2="237" stroke="#111" stroke-width="1.5"/>
<ellipse cx="550.0" cy="237" rx="180.0" ry="13" fill="#e5e7eb" stroke="#111" stroke-width="1.5"/>
<text x="550.0" y="207" text-anchor="middle" class="n">StarRocks 内部 OLAP</text>
<text x="550.0" y="229" text-anchor="middle" class="b">快照表 · 查询视图 · 即席分析</text>
<rect x="40" y="280" width="1020" height="705" fill="#fff" stroke="#111" stroke-width="1.3" stroke-dasharray="8,5"/>
<text x="54" y="308" class="h">流批一体湖仓</text>
<rect x="160" y="343" width="780" height="509" fill="#f3f4f6"/>
<ellipse cx="550.0" cy="343" rx="390.0" ry="13" fill="#fff" stroke="#111" stroke-width="1.5"/>
<line x1="160" y1="343" x2="160" y2="852" stroke="#111" stroke-width="1.5"/><line x1="940" y1="343" x2="940" y2="852" stroke="#111" stroke-width="1.5"/>
<ellipse cx="550.0" cy="852" rx="390.0" ry="13" fill="#e5e7eb" stroke="#111" stroke-width="1.5"/>
<text x="550.0" y="372" text-anchor="middle" class="n">Apache Paimon</text>
<text x="550.0" y="394" text-anchor="middle" class="b">统一 Schema · 主键语义 · Snapshot · Time Travel · Compaction</text>
<rect x="220" y="405" width="660" height="65" rx="7" fill="#f3f4f6" stroke="#111" stroke-width="1.5"/>
<text x="550.0" y="430" text-anchor="middle" class="n">ADS 应用层</text>
<text x="550.0" y="452" text-anchor="middle" class="b">留存分析  |  归因分析  |  反作弊  |  数据质量</text>
<rect x="220" y="500" width="660" height="75" rx="7" fill="#fff" stroke="#111" stroke-width="1.5"/>
<text x="550.0" y="525" text-anchor="middle" class="n">DWS 汇总层</text>
<text x="550.0" y="547" text-anchor="middle" class="b">消耗 · GMV · 曝光 · 点击 · 转化 · 订单</text>
<text x="550.0" y="565" text-anchor="middle" class="b">CTR · CVR · ROI</text>
<rect x="220" y="610" width="430" height="85" rx="7" fill="#fff" stroke="#111" stroke-width="1.5"/>
<text x="435.0" y="635" text-anchor="middle" class="n">DWD 明细层</text>
<text x="435.0" y="657" text-anchor="middle" class="b">清洗 · 去重 · 维度补全</text>
<text x="435.0" y="675" text-anchor="middle" class="b">dwd_ad_events_di</text>
<rect x="690" y="610" width="190" height="85" rx="7" fill="#f3f4f6" stroke="#111" stroke-width="1.5"/>
<text x="785.0" y="635" text-anchor="middle" class="n">DIM 维度层</text>
<text x="785.0" y="657" text-anchor="middle" class="b">广告主 · 计划</text>
<text x="785.0" y="675" text-anchor="middle" class="b">单元 · 创意</text>
<rect x="220" y="735" width="660" height="70" rx="7" fill="#f3f4f6" stroke="#111" stroke-width="1.5"/>
<text x="550.0" y="760" text-anchor="middle" class="n">ODS 原始层</text>
<text x="550.0" y="782" text-anchor="middle" class="b">ods_ad_events_di</text>
<rect x="100" y="885" width="360" height="70" rx="7" fill="#fff" stroke="#111" stroke-width="1.5"/>
<text x="280.0" y="910" text-anchor="middle" class="n">Flink Streaming</text>
<text x="280.0" y="932" text-anchor="middle" class="b">实时写入 · 10 秒窗口聚合</text>
<rect x="640" y="885" width="360" height="70" rx="7" fill="#fff" stroke="#111" stroke-width="1.5"/>
<text x="820.0" y="910" text-anchor="middle" class="n">Flink Batch</text>
<text x="820.0" y="932" text-anchor="middle" class="b">历史重算 · DWS/ADS 专题计算</text>
<rect x="40" y="1010" width="1020" height="180" fill="#fff" stroke="#111" stroke-width="1.3" stroke-dasharray="8,5"/>
<text x="54" y="1038" class="h">数据采集</text>
<rect x="95" y="1060" width="270" height="85" rx="7" fill="#fff" stroke="#111" stroke-width="1.5" stroke-dasharray="6,4"/>
<text x="230.0" y="1085" text-anchor="middle" class="n">Flink CDC 3.x</text>
<text x="230.0" y="1107" text-anchor="middle" class="b">YAML：全量 + 增量</text>
<text x="230.0" y="1125" text-anchor="middle" class="b">Schema 自动演化</text>
<rect x="415" y="1060" width="270" height="85" rx="7" fill="#fff" stroke="#111" stroke-width="1.5" stroke-dasharray="6,4"/>
<text x="550.0" y="1085" text-anchor="middle" class="n">埋点采集服务 / API</text>
<text x="550.0" y="1107" text-anchor="middle" class="b">校验 · 鉴权 · 限流</text>
<text x="550.0" y="1125" text-anchor="middle" class="b">Demo：Generator 直写</text>
<rect x="735" y="1068" width="270" height="69" fill="#f3f4f6"/>
<ellipse cx="870.0" cy="1068" rx="135.0" ry="13" fill="#fff" stroke="#111" stroke-width="1.5"/>
<line x1="735" y1="1068" x2="735" y2="1137" stroke="#111" stroke-width="1.5"/><line x1="1005" y1="1068" x2="1005" y2="1137" stroke="#111" stroke-width="1.5"/>
<ellipse cx="870.0" cy="1137" rx="135.0" ry="13" fill="#e5e7eb" stroke="#111" stroke-width="1.5"/>
<text x="870.0" y="1097" text-anchor="middle" class="n">Apache Kafka</text>
<text x="870.0" y="1119" text-anchor="middle" class="b">Topic：ods_log</text>
<text x="870.0" y="1137" text-anchor="middle" class="b">实时事件消息总线</text>
<rect x="40" y="1215" width="1020" height="150" fill="#fff" stroke="#111" stroke-width="1.3" stroke-dasharray="8,5"/>
<text x="54" y="1243" class="h">数据源</text>
<rect x="130" y="1273" width="340" height="54" fill="#f3f4f6"/>
<ellipse cx="300.0" cy="1273" rx="170.0" ry="13" fill="#fff" stroke="#111" stroke-width="1.5"/>
<line x1="130" y1="1273" x2="130" y2="1327" stroke="#111" stroke-width="1.5"/><line x1="470" y1="1273" x2="470" y2="1327" stroke="#111" stroke-width="1.5"/>
<ellipse cx="300.0" cy="1327" rx="170.0" ry="13" fill="#e5e7eb" stroke="#111" stroke-width="1.5"/>
<text x="300.0" y="1302" text-anchor="middle" class="n">业务系统 OLTP</text>
<text x="300.0" y="1324" text-anchor="middle" class="b">MySQL / PostgreSQL · Demo 使用 MySQL</text>
<rect x="630" y="1260" width="340" height="80" rx="7" fill="#fff" stroke="#111" stroke-width="1.5"/>
<text x="800.0" y="1285" text-anchor="middle" class="n">用户行为事件</text>
<text x="800.0" y="1307" text-anchor="middle" class="b">Web/App 埋点 SDK</text>
<text x="800.0" y="1325" text-anchor="middle" class="b">曝光 · 点击 · 转化 · 下单</text>
<rect x="40" y="1390" width="1020" height="80" fill="#fff" stroke="#111" stroke-width="1.3" stroke-dasharray="8,5"/>
<text x="54" y="1418" class="h">治理与运维</text>
<text x="550" y="1438" text-anchor="middle" class="b">Apicurio Schema Registry　｜　DolphinScheduler　｜　Prometheus + Grafana　｜　Loki</text>
<path d="M550,165 V160" fill="none" stroke="#111" stroke-width="2.6" marker-end="url(#up)"/>
<path d="M550,330 V250" fill="none" stroke="#111" stroke-width="2.6" stroke-dasharray="6,4" marker-end="url(#up)"/>
<rect x="569.5" y="276" width="91" height="19" fill="#fff"/>
<text x="615" y="290" text-anchor="middle" class="l">同步 / 直读</text>
<path d="M550,500 V470" fill="none" stroke="#111" stroke-width="1.5" marker-end="url(#thin)"/>
<path d="M435,610 V575" fill="none" stroke="#111" stroke-width="1.5" marker-end="url(#thin)"/>
<path d="M690,652 H650" fill="none" stroke="#111" stroke-width="1.5" marker-end="url(#thin)"/>
<rect x="644.0" y="626" width="52" height="19" fill="#fff"/>
<text x="670" y="640" text-anchor="middle" class="l">维度关联</text>
<path d="M435,735 V695" fill="none" stroke="#111" stroke-width="1.5" marker-end="url(#thin)"/>
<path d="M280,885 V805" fill="none" stroke="#111" stroke-width="2.6" marker-end="url(#up)"/>
<rect x="309.0" y="841" width="52" height="19" fill="#fff"/>
<text x="335" y="855" text-anchor="middle" class="l">实时写入</text>
<path d="M820,885 H930 V537 H880" fill="none" stroke="#111" stroke-width="2.6" marker-end="url(#up)"/>
<rect x="929.0" y="721" width="52" height="19" fill="#fff"/>
<text x="955" y="735" text-anchor="middle" class="l">历史回溯</text>
<path d="M870,1055 V985 H280 V955" fill="none" stroke="#111" stroke-width="2.6" marker-end="url(#up)"/>
<rect x="834.0" y="1001" width="52" height="19" fill="#fff"/>
<text x="860" y="1015" text-anchor="middle" class="l">消费事件</text>
<path d="M300,1260 V1145" fill="none" stroke="#111" stroke-width="2.6" stroke-dasharray="6,4" marker-end="url(#up)"/>
<rect x="280.0" y="1201" width="130" height="19" fill="#fff"/>
<text x="345" y="1215" text-anchor="middle" class="l">CDC / JDBC</text>
<path d="M230,1060 V1000 H1025 V652 H880" fill="none" stroke="#111" stroke-width="1.5" stroke-dasharray="6,4" marker-end="url(#thin)"/>
<rect x="1009.0" y="811" width="52" height="19" fill="#fff"/>
<text x="1035" y="825" text-anchor="middle" class="l">维表同步</text>
<path d="M800,1260 V1145 H550" fill="none" stroke="#111" stroke-width="2.6" stroke-dasharray="6,4" marker-end="url(#up)"/>
<rect x="734.0" y="1191" width="52" height="19" fill="#fff"/>
<text x="760" y="1205" text-anchor="middle" class="l">行为上报</text>
<path d="M685,1102 H735" fill="none" stroke="#111" stroke-width="2.6" stroke-dasharray="6,4" marker-end="url(#up)"/>
<rect x="677.5" y="1076" width="65" height="19" fill="#fff"/>
<text x="710" y="1090" text-anchor="middle" class="l">服务端写入</text>
</svg>