<svg xmlns="http://www.w3.org/2000/svg" viewBox="0 0 1600 900" width="1600" height="900">
<style>text{font-family:"Microsoft YaHei","PingFang SC","SimHei",Arial,sans-serif}.title{font-size:24px;font-weight:700;fill:#111827}.sub{font-size:12px;fill:#6b7280}.section{font-size:13px;font-weight:700;fill:#374151;letter-spacing:.08em}.name{font-size:14px;font-weight:600;fill:#111827}.body{font-size:11px;fill:#374151}.small{font-size:10px;fill:#6b7280}.label{font-size:10px;fill:#374151}</style>
<defs><marker id="arrow" markerWidth="8" markerHeight="6" refX="7" refY="3" orient="auto"><polygon points="0 0,8 3,0 6" fill="#374151"/></marker><marker id="arrow-light" markerWidth="8" markerHeight="6" refX="7" refY="3" orient="auto"><polygon points="0 0,8 3,0 6" fill="#9ca3af"/></marker></defs>
<rect width="1600" height="900" fill="#ffffff"/>
<text x="800" y="38" text-anchor="middle" class="title">广告流批一体湖仓系统总体架构</text>
<text x="800" y="60" text-anchor="middle" class="sub">主数据流从左向右；Paimon 内部统一 ODS、DWD、DWS、DIM 与 ADS 表模型</text>
<rect x="32" y="90" width="220" height="570" rx="4" fill="#ffffff" stroke="#d1d5db"/>
<text x="48" y="114" class="section">01  DATA SOURCES</text>
<rect x="272" y="90" width="245" height="570" rx="4" fill="#ffffff" stroke="#d1d5db"/>
<text x="288" y="114" class="section">02  INGESTION</text>
<rect x="537" y="90" width="245" height="570" rx="4" fill="#ffffff" stroke="#d1d5db"/>
<text x="553" y="114" class="section">03  STREAM &amp; BATCH</text>
<rect x="802" y="90" width="470" height="570" rx="4" fill="#f9fafb" stroke="#d1d5db"/>
<text x="818" y="114" class="section">04  PAIMON LAKEHOUSE</text>
<rect x="1292" y="90" width="276" height="570" rx="4" fill="#ffffff" stroke="#d1d5db"/>
<text x="1308" y="114" class="section">05  SERVING</text>
<rect x="62" y="170" width="160" height="115" fill="#f3f4f6"/>
<ellipse cx="142.0" cy="170" rx="80.0" ry="10" fill="#f9fafb" stroke="#9ca3af"/>
<line x1="62" y1="170" x2="62" y2="285" stroke="#9ca3af"/>
<line x1="222" y1="170" x2="222" y2="285" stroke="#9ca3af"/>
<ellipse cx="142.0" cy="285" rx="80.0" ry="10" fill="#e5e7eb" stroke="#9ca3af"/>
<text x="142.0" y="194" text-anchor="middle" class="name">业务系统 OLTP</text>
<text x="142.0" y="214" text-anchor="middle" class="body">MySQL / PostgreSQL</text>
<text x="142.0" y="230" text-anchor="middle" class="body">广告、计划、订单</text>
<text x="142.0" y="246" text-anchor="middle" class="body">Demo：MySQL</text>
<rect x="62" y="420" width="160" height="130" rx="4" fill="#ffffff" stroke="#9ca3af"/>
<text x="142.0" y="445" text-anchor="middle" class="name">用户行为事件</text>
<text x="142.0" y="466" text-anchor="middle" class="body">Web / App 埋点 SDK</text>
<text x="142.0" y="483" text-anchor="middle" class="body">曝光、点击、转化、下单</text>
<text x="142.0" y="500" text-anchor="middle" class="body">Demo：Python Generator</text>
<rect x="302" y="175" width="185" height="110" rx="4" fill="#ffffff" stroke="#9ca3af" stroke-dasharray="5,4"/>
<text x="394.5" y="200" text-anchor="middle" class="name">Flink CDC 3.x</text>
<text x="394.5" y="221" text-anchor="middle" class="body">YAML 声明式流水线</text>
<text x="394.5" y="238" text-anchor="middle" class="body">全量 + 增量</text>
<text x="394.5" y="255" text-anchor="middle" class="body">Schema 自动演化</text>
<rect x="302" y="430" width="185" height="110" rx="4" fill="#ffffff" stroke="#9ca3af" stroke-dasharray="5,4"/>
<text x="394.5" y="455" text-anchor="middle" class="name">埋点采集服务 / API</text>
<text x="394.5" y="476" text-anchor="middle" class="body">HTTP / gRPC</text>
<text x="394.5" y="493" text-anchor="middle" class="body">校验、鉴权、限流</text>
<text x="394.5" y="510" text-anchor="middle" class="body">Demo：直写 Kafka</text>
<rect x="567" y="425" width="185" height="85" fill="#f3f4f6"/>
<ellipse cx="659.5" cy="425" rx="92.5" ry="10" fill="#f9fafb" stroke="#9ca3af"/>
<line x1="567" y1="425" x2="567" y2="510" stroke="#9ca3af"/>
<line x1="752" y1="425" x2="752" y2="510" stroke="#9ca3af"/>
<ellipse cx="659.5" cy="510" rx="92.5" ry="10" fill="#e5e7eb" stroke="#9ca3af"/>
<text x="659.5" y="449" text-anchor="middle" class="name">Apache Kafka</text>
<text x="659.5" y="469" text-anchor="middle" class="body">Topic：ods_log</text>
<text x="659.5" y="485" text-anchor="middle" class="body">实时事件消息总线</text>
<rect x="567" y="540" width="185" height="85" rx="4" fill="#ffffff" stroke="#9ca3af"/>
<text x="659.5" y="565" text-anchor="middle" class="name">Flink Streaming</text>
<text x="659.5" y="586" text-anchor="middle" class="body">长期运行、秒级处理</text>
<text x="659.5" y="603" text-anchor="middle" class="body">实时写入与窗口聚合</text>
<rect x="567" y="205" width="185" height="85" rx="4" fill="#ffffff" stroke="#9ca3af"/>
<text x="659.5" y="230" text-anchor="middle" class="name">Flink Batch</text>
<text x="659.5" y="251" text-anchor="middle" class="body">历史重算与数据回溯</text>
<text x="659.5" y="268" text-anchor="middle" class="body">DWS / ADS 专题计算</text>
<rect x="832" y="145" width="410" height="65" rx="4" fill="#e5e7eb" stroke="#9ca3af"/>
<text x="1037.0" y="170" text-anchor="middle" class="name">ADS 应用层</text>
<text x="1037.0" y="191" text-anchor="middle" class="body">留存分析  |  归因分析  |  反作弊  |  数据质量</text>
<rect x="832" y="245" width="410" height="78" rx="4" fill="#ffffff" stroke="#9ca3af"/>
<text x="1037.0" y="270" text-anchor="middle" class="name">DWS 汇总层</text>
<text x="1037.0" y="291" text-anchor="middle" class="body">消耗、GMV、曝光、点击、转化、订单</text>
<text x="1037.0" y="308" text-anchor="middle" class="body">CTR、CVR、ROI</text>
<rect x="832" y="365" width="250" height="82" rx="4" fill="#ffffff" stroke="#9ca3af"/>
<text x="957.0" y="390" text-anchor="middle" class="name">DWD 明细层</text>
<text x="957.0" y="411" text-anchor="middle" class="body">清洗、去重、维度补全</text>
<text x="957.0" y="428" text-anchor="middle" class="body">dwd_ad_events_di</text>
<rect x="1112" y="365" width="130" height="82" rx="4" fill="#f3f4f6" stroke="#9ca3af"/>
<text x="1177.0" y="390" text-anchor="middle" class="name">DIM 维度层</text>
<text x="1177.0" y="411" text-anchor="middle" class="body">广告主、计划</text>
<text x="1177.0" y="428" text-anchor="middle" class="body">单元、创意</text>
<rect x="832" y="505" width="410" height="76" rx="4" fill="#f3f4f6" stroke="#9ca3af"/>
<text x="1037.0" y="530" text-anchor="middle" class="name">ODS 原始层</text>
<text x="1037.0" y="551" text-anchor="middle" class="body">ods_ad_events_di</text>
<text x="1037" y="625" text-anchor="middle" class="small">统一 Schema · 主键语义 · Snapshot · Time Travel · Compaction</text>
<rect x="1325" y="155" width="210" height="88" rx="4" fill="#ffffff" stroke="#9ca3af" stroke-dasharray="5,4"/>
<text x="1430.0" y="180" text-anchor="middle" class="name">Paimon External Catalog</text>
<text x="1430.0" y="201" text-anchor="middle" class="body">目录已接入</text>
<text x="1430.0" y="218" text-anchor="middle" class="body">直读受本地版本兼容限制</text>
<rect x="1325" y="335" width="210" height="85" fill="#f3f4f6"/>
<ellipse cx="1430.0" cy="335" rx="105.0" ry="10" fill="#f9fafb" stroke="#9ca3af"/>
<line x1="1325" y1="335" x2="1325" y2="420" stroke="#9ca3af"/>
<line x1="1535" y1="335" x2="1535" y2="420" stroke="#9ca3af"/>
<ellipse cx="1430.0" cy="420" rx="105.0" ry="10" fill="#e5e7eb" stroke="#9ca3af"/>
<text x="1430.0" y="359" text-anchor="middle" class="name">StarRocks 内部 OLAP</text>
<text x="1430.0" y="379" text-anchor="middle" class="body">快照表与查询视图</text>
<text x="1430.0" y="395" text-anchor="middle" class="body">当前稳定查询路径</text>
<rect x="1325" y="510" width="210" height="82" rx="4" fill="#ffffff" stroke="#9ca3af"/>
<text x="1430.0" y="535" text-anchor="middle" class="name">Apache Superset</text>
<text x="1430.0" y="556" text-anchor="middle" class="body">指标看板</text>
<text x="1430.0" y="573" text-anchor="middle" class="body">交互式多维分析</text>
<path d="M 222 225 H 302" fill="none" stroke="#9ca3af" stroke-width="1.5" stroke-dasharray="5,4" marker-end="url(#arrow-light)"/>
<rect x="240.0" y="203" width="44" height="16" rx="2" fill="#ffffff" opacity=".96"/>
<text x="262" y="215" text-anchor="middle" class="label">业务变更</text>
<path d="M 487 230 H 790 V 406 H 1112" fill="none" stroke="#9ca3af" stroke-width="1.5" stroke-dasharray="5,4" marker-end="url(#arrow-light)"/>
<rect x="628.0" y="208" width="44" height="16" rx="2" fill="#ffffff" opacity=".96"/>
<text x="650" y="220" text-anchor="middle" class="label">维表同步</text>
<path d="M 222 485 H 302" fill="none" stroke="#9ca3af" stroke-width="1.5" stroke-dasharray="5,4" marker-end="url(#arrow-light)"/>
<rect x="240.0" y="463" width="44" height="16" rx="2" fill="#ffffff" opacity=".96"/>
<text x="262" y="475" text-anchor="middle" class="label">行为事件</text>
<path d="M 487 485 H 567" fill="none" stroke="#9ca3af" stroke-width="1.5" stroke-dasharray="5,4" marker-end="url(#arrow-light)"/>
<rect x="499.5" y="463" width="55" height="16" rx="2" fill="#ffffff" opacity=".96"/>
<text x="527" y="475" text-anchor="middle" class="label">服务端写入</text>
<path d="M 660 520 V 540" fill="none" stroke="#374151" stroke-width="1.5" marker-end="url(#arrow)"/>
<rect x="661.0" y="524" width="42" height="16" rx="2" fill="#ffffff" opacity=".96"/>
<text x="682" y="536" text-anchor="middle" class="label">消费</text>
<path d="M 752 582 H 790 V 543 H 832" fill="none" stroke="#374151" stroke-width="1.5" marker-end="url(#arrow)"/>
<rect x="768.0" y="558" width="44" height="16" rx="2" fill="#ffffff" opacity=".96"/>
<text x="790" y="570" text-anchor="middle" class="label">实时写入</text>
<path d="M 957 505 V 447" fill="none" stroke="#374151" stroke-width="1.5" marker-end="url(#arrow)"/>
<rect x="957.0" y="466" width="42" height="16" rx="2" fill="#ffffff" opacity=".96"/>
<text x="978" y="478" text-anchor="middle" class="label">清洗</text>
<path d="M 1112 406 H 1082" fill="none" stroke="#374151" stroke-width="1.5" marker-end="url(#arrow)"/>
<rect x="1075.0" y="383" width="44" height="16" rx="2" fill="#ffffff" opacity=".96"/>
<text x="1097" y="395" text-anchor="middle" class="label">维度关联</text>
<path d="M 957 365 V 323" fill="none" stroke="#374151" stroke-width="1.5" marker-end="url(#arrow)"/>
<rect x="957.0" y="335" width="42" height="16" rx="2" fill="#ffffff" opacity=".96"/>
<text x="978" y="347" text-anchor="middle" class="label">聚合</text>
<path d="M 1037 245 V 210" fill="none" stroke="#374151" stroke-width="1.5" marker-end="url(#arrow)"/>
<rect x="1043.0" y="218" width="44" height="16" rx="2" fill="#ffffff" opacity=".96"/>
<text x="1065" y="230" text-anchor="middle" class="label">专题加工</text>
<path d="M 752 247 H 832" fill="none" stroke="#374151" stroke-width="1.5" marker-end="url(#arrow)"/>
<rect x="770.0" y="225" width="44" height="16" rx="2" fill="#ffffff" opacity=".96"/>
<text x="792" y="237" text-anchor="middle" class="label">历史回溯</text>
<path d="M 1242 177 H 1325" fill="none" stroke="#9ca3af" stroke-width="1.5" stroke-dasharray="5,4" marker-end="url(#arrow-light)"/>
<rect x="1261.0" y="155" width="44" height="16" rx="2" fill="#ffffff" opacity=".96"/>
<text x="1283" y="167" text-anchor="middle" class="label">目录直读</text>
<path d="M 1242 284 H 1280 V 377 H 1325" fill="none" stroke="#374151" stroke-width="1.5" marker-end="url(#arrow)"/>
<rect x="1258.0" y="298" width="44" height="16" rx="2" fill="#ffffff" opacity=".96"/>
<text x="1280" y="310" text-anchor="middle" class="label">同步脚本</text>
<path d="M 1430 430 V 510" fill="none" stroke="#374151" stroke-width="1.5" marker-end="url(#arrow)"/>
<rect x="1425.0" y="462" width="66" height="16" rx="2" fill="#ffffff" opacity=".96"/>
<text x="1458" y="474" text-anchor="middle" class="label">SQL 查询</text>
<rect x="32" y="690" width="1536" height="145" rx="4" fill="#f9fafb" stroke="#d1d5db"/>
<text x="48" y="714" class="section">06  GOVERNANCE &amp; OPERATIONS</text>
<rect x="72" y="742" width="320" height="62" rx="4" fill="#ffffff" stroke="#9ca3af"/>
<text x="232.0" y="767" text-anchor="middle" class="name">Apicurio Schema Registry</text>
<text x="232.0" y="788" text-anchor="middle" class="body">Schema 注册、版本查询与治理</text>
<rect x="440" y="742" width="320" height="62" rx="4" fill="#ffffff" stroke="#9ca3af"/>
<text x="600.0" y="767" text-anchor="middle" class="name">DolphinScheduler</text>
<text x="600.0" y="788" text-anchor="middle" class="body">批任务编排、调度与失败重试</text>
<rect x="808" y="742" width="320" height="62" rx="4" fill="#ffffff" stroke="#9ca3af"/>
<text x="968.0" y="767" text-anchor="middle" class="name">Prometheus + Grafana</text>
<text x="968.0" y="788" text-anchor="middle" class="body">指标采集、运行状态与趋势监控</text>
<rect x="1176" y="742" width="320" height="62" rx="4" fill="#ffffff" stroke="#9ca3af"/>
<text x="1336.0" y="767" text-anchor="middle" class="name">Loki</text>
<text x="1336.0" y="788" text-anchor="middle" class="body">集中日志查询与故障定位</text>
<line x1="480" y1="867" x2="530" y2="867" stroke="#374151" stroke-width="1.5" marker-end="url(#arrow)"/>
<text x="540" y="871" class="small">当前稳定运行路径</text>
<line x1="735" y1="867" x2="785" y2="867" stroke="#9ca3af" stroke-width="1.5" stroke-dasharray="5,4" marker-end="url(#arrow-light)"/>
<text x="795" y="871" class="small">设计或配置路径</text>
<rect x="965" y="854" width="32" height="20" rx="3" fill="#f3f4f6" stroke="#9ca3af"/>
<text x="1007" y="870" class="small">持久化或状态组件</text>
</svg>